<mxfile host="www.draw.io" modified="2019-11-21T07:19:33.720Z" agent="Mozilla/5.0 (Macintosh; Intel Mac OS X 10_14_2) AppleWebKit/537.36 (KHTML, like Gecko) Chrome/78.0.3904.97 Safari/537.36" etag="OK_QNLUW7duW9CkO3Ica" version="12.2.7" type="github" pages="1">
  <diagram id="SUPwY0HwSjwyPl2F55fH" name="Page-1">
    <mxGraphModel dx="1012" dy="1669" grid="1" gridSize="10" guides="1" tooltips="1" connect="1" arrows="1" fold="1" page="1" pageScale="1" pageWidth="827" pageHeight="1169" math="0" shadow="0">
      <root>
        <mxCell id="0"/>
        <mxCell id="1" parent="0"/>
        <mxCell id="wqNQRJWOFcjmoFV6VP_r-5" value="WMS（仓储系统）" style="html=1;outlineConnect=0;whiteSpace=wrap;fillColor=#ffff99;shape=mxgraph.archimate3.service;" parent="1" vertex="1">
          <mxGeometry x="880" y="120" width="140" height="35" as="geometry"/>
        </mxCell>
        <mxCell id="wqNQRJWOFcjmoFV6VP_r-6" value="CRM（客户系统）" style="html=1;outlineConnect=0;whiteSpace=wrap;fillColor=#ffff99;shape=mxgraph.archimate3.service;" parent="1" vertex="1">
          <mxGeometry x="30" y="120" width="140" height="35" as="geometry"/>
        </mxCell>
        <mxCell id="wqNQRJWOFcjmoFV6VP_r-7" value="HR（人力资源系统）" style="html=1;outlineConnect=0;whiteSpace=wrap;fillColor=#ffff99;shape=mxgraph.archimate3.service;" parent="1" vertex="1">
          <mxGeometry x="1260" y="120" width="130" height="35" as="geometry"/>
        </mxCell>
        <mxCell id="wqNQRJWOFcjmoFV6VP_r-8" value="RD（研发系统）" style="html=1;outlineConnect=0;whiteSpace=wrap;fillColor=#ffff99;shape=mxgraph.archimate3.service;" parent="1" vertex="1">
          <mxGeometry x="1420" y="120" width="130" height="35" as="geometry"/>
        </mxCell>
        <mxCell id="wqNQRJWOFcjmoFV6VP_r-9" value="PM（产品系统）" style="html=1;outlineConnect=0;whiteSpace=wrap;fillColor=#ffff99;shape=mxgraph.archimate3.service;" parent="1" vertex="1">
          <mxGeometry x="1080" y="120" width="130" height="35" as="geometry"/>
        </mxCell>
        <mxCell id="wqNQRJWOFcjmoFV6VP_r-10" value="PMS（采购系统）" style="html=1;outlineConnect=0;whiteSpace=wrap;fillColor=#ffff99;shape=mxgraph.archimate3.service;" parent="1" vertex="1">
          <mxGeometry x="200" y="120" width="140" height="35" as="geometry"/>
        </mxCell>
        <mxCell id="wqNQRJWOFcjmoFV6VP_r-11" value="OMS（订单系统）" style="html=1;outlineConnect=0;whiteSpace=wrap;fillColor=#ffff99;shape=mxgraph.archimate3.service;" parent="1" vertex="1">
          <mxGeometry x="540" y="120" width="140" height="35" as="geometry"/>
        </mxCell>
        <mxCell id="wqNQRJWOFcjmoFV6VP_r-12" value="TMS（物流系统）" style="html=1;outlineConnect=0;whiteSpace=wrap;fillColor=#ffff99;shape=mxgraph.archimate3.service;" parent="1" vertex="1">
          <mxGeometry x="710" y="120" width="140" height="35" as="geometry"/>
        </mxCell>
        <mxCell id="llJtA0Mn6m5javbV2PH--3" value="SKU（商品系统）" style="html=1;outlineConnect=0;whiteSpace=wrap;fillColor=#ffff99;shape=mxgraph.archimate3.service;" vertex="1" parent="1">
          <mxGeometry x="370" y="120" width="140" height="35" as="geometry"/>
        </mxCell>
        <mxCell id="llJtA0Mn6m5javbV2PH--4" value="PASSPORT（登陆）" style="html=1;outlineConnect=0;whiteSpace=wrap;fillColor=#99ffff;shape=mxgraph.archimate3.service;" vertex="1" parent="1">
          <mxGeometry x="350" y="-10" width="145" height="35" as="geometry"/>
        </mxCell>
      </root>
    </mxGraphModel>
  </diagram>
</mxfile>
